<svg xmlns="http://www.w3.org/2000/svg" version="1.1" xmlns:xlink="http://www.w3.org/1999/xlink" xmlns:svgjs="http://svgjs.com/svgjs" width="512" height="512" x="0" y="0" viewBox="0 0 25 25" style="enable-background:new 0 0 512 512" xml:space="preserve" class=""><circle r="12.5" cx="12.5" cy="12.5" fill="#161b22" shape="circle"></circle><g transform="matrix(0.7,0,0,0.7,3.75,3.75)"><path fill-rule="evenodd" d="m12.5.5 12.5 8-3.125 2 3.125 2-3.125 2 3.125 2-12.5 8-12.5-8 3.125-2L0 12.5l3.125-2L0 8.5zm-10.645 8L12.5 1.687 23.145 8.5 12.5 15.313zm2.198 2.594L1.855 12.5 12.5 19.313 23.145 12.5l-2.198-1.406L12.5 16.5zM1.855 16.5l2.197-1.406L12.5 20.5l8.447-5.406 2.198 1.406L12.5 23.313z" clip-rule="evenodd" fill="#f0f6fc" data-original="#000000" class=""></path></g></svg>